<svg xmlns="http://www.w3.org/2000/svg" width="174" height="64" viewBox="9500 6500 10400 8000" image-rendering="optimizeQuality" shape-rendering="geometricPrecision" text-rendering="geometricPrecision"><defs/><path d="M5602 9015v875c0 185 151 211 324 288l430 193c278 135 567 259 849 385l1275 581c58 26 163 85 233 78 89-9 141-83 141-174V8234c0-100-83-198-198-171-27 6-244 111-269 128l-363 173c-48 0-1689 766-1959 893-292 138-339-129-290-228 39-82 105-95 184-132l1298-610c149-70 295-141 434-201 61-26 179-67 186-129 15-129-131-70-190-41l-874 402c-263 110-591 278-868 399-196 85-343 122-343 298z" fill="#3c6"/><path d="M5600 10566v2342c0 98 24 159 92 195 84 45 153 4 229-33l804-366c135-62 272-121 412-182 62-27 125-63 192-90l1219-553c70-34 152-43 147-153-4-92-79-105-150-138l-1418-641c-314-136-684-322-1005-459-158-67-323-179-429-124-72 37-93 105-93 202z" fill="#093"/><path d="M6047 8672v183l-88 42c-79 37-145 50-184 132-47 97-4 354 272 236v967l-121-54c-173-77-324-103-324-288v-875c0-176 147-213 343-298 33-15 67-30 102-45zm0 1782v2559l-126 57c-76 37-145 78-229 33-68-36-92-97-92-195v-2342c0-97 21-165 93-202 89-46 220 26 354 90zM9404 12587h685V9165h-685v3422zm2674-3422c-473 0-876 167-1210 501s-502 737-502 1209v1712h1020v-955c-223-205-334-457-334-757 0-282 100-524 300-725 201-200 442-300 726-300 283 0 525 100 726 300 200 201 300 443 300 725v1712h685v-1712c0-472-167-875-501-1209s-738-501-1210-501zm2001-688v4110h685V9847h1026v-685h-1026v-685h-685zm2739 2740h2370c22-113 33-227 33-342 0-472-167-875-502-1209-334-334-737-501-1209-501-473 0-876 167-1210 501s-501 737-501 1209v1712h1711c345 0 661-96 947-287 280-186 487-433 621-740h-804c-205 228-460 342-764 342-283 0-525-101-725-301-201-200-302-442-302-726 0-282 101-524 302-725 200-200 442-300 725-300 221 0 421 64 598 193 174 125 297 289 369 491h-1659v683zm2701 1370h684V8472h-684v4115zm953 0h685V8472h-685v4115zm957 0h684V9165h-684v3422zm960-4110v4110h685V9847h1026v-685h-1026v-685h-685z" fill="#fff"/><path fill="#3c6" d="M9405 8490h680v569h-680zm12028 1h679v568h-679z"/></svg>